<?xml version="1.0" standalone="no"?>
<!DOCTYPE svg PUBLIC "-//W3C//DTD SVG 20010904//EN"
 "http://www.w3.org/TR/2001/REC-SVG-20010904/DTD/svg10.dtd">
<svg version="1.0" xmlns="http://www.w3.org/2000/svg"
 width="517.000000pt" height="482.000000pt" viewBox="0 0 517.000000 482.000000"
 preserveAspectRatio="xMidYMid meet">

<g transform="translate(0.000000,482.000000) scale(0.100000,-0.100000)"
fill="#000000" stroke="none">
<path d="M2340 4334 c-281 -23 -570 -122 -800 -273 -108 -70 -177 -127 -291
-241 -125 -124 -150 -154 -235 -282 -276 -415 -362 -937 -237 -1438 103 -417
387 -809 763 -1055 313 -204 728 -310 1082 -276 318 30 581 121 838 289 171
112 383 323 492 487 222 337 317 668 305 1060 -11 361 -105 653 -308 955 -123
184 -318 376 -511 503 -140 92 -373 192 -533 228 -160 36 -417 56 -565 43z
m679 -784 c19 -23 21 -36 18 -130 -3 -114 -22 -179 -74 -253 -15 -21 -46 -67
-68 -102 -42 -65 -162 -212 -237 -288 -23 -24 -52 -56 -63 -70 -11 -14 -41
-50 -66 -79 -44 -50 -47 -58 -54 -127 l-7 -74 28 20 c16 11 54 31 85 46 50 24
67 27 167 27 63 0 112 -4 112 -9 0 -6 15 -11 33 -13 l32 -3 3 -70 c4 -90 -9
-136 -64 -221 -55 -86 -57 -118 -9 -217 50 -105 66 -120 114 -112 21 3 94 38
162 76 128 72 167 107 227 206 27 46 32 64 32 117 0 57 11 86 32 86 4 0 8 -26
8 -57 0 -70 -35 -136 -124 -236 -60 -67 -149 -128 -293 -201 -62 -31 -122 -34
-144 -8 -15 17 -23 31 -64 111 -8 16 -18 50 -21 75 l-7 46 -49 0 c-39 0 -54 5
-69 23 -21 25 -24 65 -7 102 12 26 85 75 112 75 22 0 56 -58 56 -95 0 -28 2
-27 33 25 30 51 32 61 32 150 l0 95 -30 3 c-16 2 -34 8 -39 13 -6 5 -53 9
-105 9 -88 0 -99 -2 -167 -36 -67 -33 -74 -39 -88 -82 -9 -25 -16 -63 -16 -84
0 -21 -7 -55 -15 -75 -8 -19 -15 -50 -15 -67 0 -17 -7 -40 -15 -50 -8 -11 -15
-26 -15 -34 0 -18 -47 -82 -61 -82 -15 0 -11 140 7 226 16 81 50 153 83 176
12 9 20 32 24 76 4 34 4 62 1 62 -3 0 -29 -20 -57 -44 -29 -23 -79 -60 -112
-81 -33 -21 -79 -55 -103 -76 -24 -21 -63 -45 -87 -54 l-43 -17 -7 -70 c-4
-39 -13 -82 -21 -97 -8 -14 -14 -34 -14 -43 0 -9 -4 -27 -9 -40 -5 -13 -20
-57 -32 -98 -13 -41 -34 -91 -46 -110 -60 -91 -73 -108 -114 -141 -64 -50
-116 -71 -175 -67 l-49 3 0 111 c0 90 3 115 18 135 9 13 34 48 53 77 42 63
207 234 244 252 14 7 46 29 72 49 55 43 68 80 68 198 l0 78 -33 -35 c-18 -19
-44 -54 -59 -76 -15 -23 -47 -58 -71 -78 -44 -36 -45 -36 -136 -36 -74 0 -91
3 -91 15 0 8 -6 15 -14 15 -19 0 -56 47 -56 71 0 11 -4 19 -8 19 -9 0 -21 35
-47 140 -8 36 -20 83 -26 105 -15 57 -6 234 13 271 9 16 19 36 22 46 4 15 124
118 170 146 15 9 49 12 116 9 133 -6 172 -29 234 -137 48 -82 54 -108 34 -128
-16 -16 -28 -15 -28 1 0 7 -15 39 -32 71 -18 32 -39 68 -46 81 -30 57 -190
100 -277 76 -50 -14 -125 -85 -155 -146 -21 -43 -22 -57 -18 -158 3 -67 12
-127 21 -148 8 -20 18 -60 22 -90 9 -66 58 -165 99 -201 27 -24 39 -27 102
-28 69 0 72 1 110 38 73 72 154 194 154 233 0 9 9 24 21 35 l21 19 -5 -150
c-2 -83 -8 -160 -12 -172 l-7 -23 49 21 c28 11 72 39 99 61 27 22 85 64 129
93 126 83 126 84 169 280 92 425 145 598 213 699 15 23 34 54 43 70 31 61 93
87 197 83 51 -2 65 -7 82 -27z"/>
<path d="M2837 3540 c-27 -5 -50 -10 -51 -12 -1 -2 -19 -28 -39 -58 -20 -30
-52 -92 -71 -137 -32 -76 -96 -303 -112 -398 -6 -39 -59 -271 -71 -310 -5 -18
-3 -17 22 5 15 14 52 58 83 98 30 41 64 79 74 85 10 7 47 45 81 86 55 66 87
110 177 248 55 83 74 149 71 251 -1 84 -4 98 -24 118 -27 27 -75 35 -140 24z"/>
<path d="M2396 2343 c-21 -42 -48 -186 -44 -240 3 -44 4 -45 11 -18 4 17 12
50 19 75 6 25 14 72 19 105 4 33 11 70 15 83 9 31 -3 28 -20 -5z"/>
<path d="M2690 2231 c-26 -50 9 -111 64 -111 28 0 28 1 23 45 -8 72 -62 113
-87 66z"/>
<path d="M1942 2185 c-24 -19 -62 -45 -85 -59 -47 -27 -141 -129 -207 -224
-42 -61 -44 -66 -48 -152 -6 -125 -1 -140 47 -140 54 0 133 44 177 97 36 44
104 191 104 225 0 10 4 26 9 36 19 39 40 121 46 185 4 37 6 67 4 67 -2 0 -23
-16 -47 -35z"/>
</g>
</svg>
